<?xml version="1.0" encoding="utf-8"?>
<!-- Generator: Adobe Illustrator 14.0.0, SVG Export Plug-In . SVG Version: 6.00 Build 43363)  -->
<!DOCTYPE svg PUBLIC "-//W3C//DTD SVG 1.1//EN" "http://www.w3.org/Graphics/SVG/1.1/DTD/svg11.dtd">
<svg version="1.1" id="Layer_1" xmlns="http://www.w3.org/2000/svg" xmlns:xlink="http://www.w3.org/1999/xlink" x="0px" y="0px"
	 width="65.25px" height="24px" viewBox="0 0 87 32" enable-background="new 0 0 87 32" xml:space="preserve">
<g>
	<g>
		<path fill="#231F1F" d="M35.904,2.035v20.381c0,0,7.835-0.913,7.835,6.74V9.869C43.739,2.58,35.904,2.035,35.904,2.035"/>
		<path fill="#AAAAAA" d="M39.574,0.603v17.934c0,0,4.326,0.833,4.326,8.486s0.021-14.238,0.021-18.338
			C43.922,1.397,39.574,0.603,39.574,0.603"/>
	</g>
	<path fill="#878787" d="M44.04,9.687v18.546c0,0,3.762-10.535,19.575,3.039c0-4.919,0.029-17.326,0.029-21.427
		C48.014-1.543,44.04,9.687,44.04,9.687"/>
	<path fill="#878787" d="M0.464,23.569h3.51v-4.491h1.999c3.08,0,4.81-1.402,4.81-4.599c0-3.107-2.014-4.457-4.927-4.457H0.464
		V23.569z M3.975,12.83h0.599c1.378,0,2.559,0.019,2.559,1.756c0,1.682-1.271,1.682-2.559,1.682H3.975V12.83z"/>
	<path fill="#878787" d="M12.187,14.375v5.525c0,3.021,2.156,3.952,4.948,3.952s4.949-0.931,4.949-3.952v-5.525h-3.299v4.895
		c0,1.161-0.29,1.983-1.65,1.983s-1.649-0.822-1.649-1.983v-4.895H12.187z"/>
	<path fill="#878787" d="M24.05,23.569h3.299v-1.024h0.036c0.59,0.899,1.698,1.306,2.772,1.306c2.736,0,4.632-2.265,4.632-4.924
		c0-2.642-1.878-4.905-4.596-4.905c-1.056,0-2.146,0.403-2.843,1.227V8.688h-3.299L24.05,23.569z M29.315,16.83
		c1.331,0,2.106,0.968,2.106,2.116c0,1.185-0.774,2.096-2.106,2.096c-1.332,0-2.105-0.911-2.105-2.096
		C27.209,17.798,27.982,16.83,29.315,16.83L29.315,16.83z"/>
	<polygon fill="#FFFFFF" points="45.53,23.569 49.034,23.569 50.166,15.77 50.203,15.77 53.313,23.569 54.714,23.569 57.968,15.77
		58.003,15.77 58.991,23.569 62.517,23.569 60.465,10.022 56.961,10.022 54.049,17.263 51.299,10.022 47.83,10.022 	"/>
	<path fill="#878787" d="M68.344,17.604c0.197-0.965,0.988-1.476,1.94-1.476c0.88,0,1.688,0.582,1.853,1.476H68.344z M75.17,19.156
		c0-3.151-1.859-5.134-5.073-5.134c-3.013,0-5.123,1.851-5.123,4.923c0,3.18,2.291,4.905,5.36,4.905
		c2.112,0,4.188-0.988,4.711-3.159h-3.152c-0.36,0.609-0.863,0.843-1.564,0.843c-1.352,0-2.055-0.715-2.055-2.036h6.896V19.156
		L75.17,19.156z"/>
	<path fill="#878787" d="M83.575,23.569h3.3V8.688h-3.3v6.562c-0.681-0.823-1.789-1.227-2.844-1.227
		c-2.719,0-4.597,2.264-4.597,4.904s1.914,4.923,4.632,4.923c1.072,0,2.2-0.406,2.771-1.306h0.038V23.569L83.575,23.569z
		 M81.611,16.83c1.33,0,2.104,0.968,2.104,2.116c0,1.185-0.772,2.096-2.104,2.096s-2.107-0.911-2.107-2.096
		C79.504,17.798,80.278,16.83,81.611,16.83L81.611,16.83z"/>
</g>
</svg>
